<svg width="1440" height="197" viewBox="0 0 1440 197" fill="none" xmlns="http://www.w3.org/2000/svg">
<mask id="mask0" mask-type="alpha" maskUnits="userSpaceOnUse" x="0" y="0" width="1440" height="197">
<path d="M0 0H1440V197H0V0Z" fill="white"/>
</mask>
<g mask="url(#mask0)">
<mask id="mask1" mask-type="alpha" maskUnits="userSpaceOnUse" x="0" y="0" width="1440" height="160">
<path fill-rule="evenodd" clip-rule="evenodd" d="M1440 50.205L1088.5 0L949.669 50.205L878 25.102L556 0L398.525 50.205L302.718 25.102L251.39 41.863L45.704 0L0 17.701V160H1440V50.205Z" fill="#211A29"/>
</mask>
<g mask="url(#mask1)">
<rect x="1436.37" y="-306.559" width="35" height="425" transform="rotate(24.0005 1436.37 -306.559)" fill="#920404"/>
<rect x="1468.35" y="-292.323" width="35" height="425" transform="rotate(24.0005 1468.35 -292.323)" fill="#B4B3B3"/>
<rect x="1308.07" y="-362.589" width="35" height="425" transform="rotate(24.0005 1308.07 -362.589)" fill="#920404"/>
<rect x="1340.04" y="-348.353" width="35" height="425" transform="rotate(24.0005 1340.04 -348.353)" fill="#B4B3B3"/>
<rect x="1563.86" y="-248.701" width="35" height="425" transform="rotate(24.0005 1563.86 -248.701)" fill="#920404"/>
<rect x="1595.83" y="-234.465" width="35" height="425" transform="rotate(24.0005 1595.83 -234.465)" fill="#B4B3B3"/>
<rect x="1244.53" y="-391.975" width="35" height="425" transform="rotate(24.0005 1244.53 -391.975)" fill="#920404"/>
<rect x="1276.5" y="-377.739" width="35" height="425" transform="rotate(24.0005 1276.5 -377.739)" fill="#B4B3B3"/>
<rect x="1500.32" y="-278.086" width="35" height="425" transform="rotate(24.0005 1500.32 -278.086)" fill="#920404"/>
<rect x="1532.29" y="-263.85" width="35" height="425" transform="rotate(24.0005 1532.29 -263.85)" fill="#B4B3B3"/>
<rect x="1372.02" y="-334.117" width="35" height="425" transform="rotate(24.0005 1372.02 -334.117)" fill="#920404"/>
<rect x="1403.99" y="-319.881" width="35" height="425" transform="rotate(24.0005 1403.99 -319.881)" fill="#B4B3B3"/>
<rect x="1007.71" y="-32.1914" width="35" height="425" transform="rotate(24.0005 1007.71 -32.1914)" fill="#920404"/>
<rect x="1039.69" y="-17.9554" width="35" height="425" transform="rotate(24.0005 1039.69 -17.9554)" fill="#B4B3B3"/>
<rect x="495.723" y="-259.054" width="35" height="425" transform="rotate(24.0005 495.723 -259.054)" fill="#920404"/>
<rect x="527.697" y="-244.818" width="35" height="425" transform="rotate(24.0005 527.697 -244.818)" fill="#B4B3B3"/>
<rect x="240.338" y="-373.856" width="35" height="425" transform="rotate(24.0005 240.338 -373.856)" fill="#920404"/>
<rect x="272.312" y="-359.62" width="35" height="425" transform="rotate(24.0005 272.312 -359.62)" fill="#B4B3B3"/>
<rect x="1263.5" y="81.6969" width="35" height="425" transform="rotate(24.0005 1263.5 81.6969)" fill="#920404"/>
<rect x="1295.48" y="95.9329" width="35" height="425" transform="rotate(24.0005 1295.48 95.9329)" fill="#B4B3B3"/>
<rect x="751.514" y="-145.166" width="35" height="425" transform="rotate(24.0005 751.514 -145.166)" fill="#920404"/>
<rect x="783.488" y="-130.93" width="35" height="425" transform="rotate(24.0005 783.488 -130.93)" fill="#B4B3B3"/>
<rect x="1135.2" y="25.6663" width="35" height="425" transform="rotate(24.0005 1135.2 25.6663)" fill="#920404"/>
<rect x="1167.18" y="39.9023" width="35" height="425" transform="rotate(24.0005 1167.18 39.9023)" fill="#B4B3B3"/>
<rect x="623.212" y="-201.197" width="35" height="425" transform="rotate(24.0005 623.212 -201.197)" fill="#920404"/>
<rect x="655.186" y="-186.961" width="35" height="425" transform="rotate(24.0005 655.186 -186.961)" fill="#B4B3B3"/>
<rect x="367.827" y="-315.999" width="35" height="425" transform="rotate(24.0005 367.827 -315.999)" fill="#920404"/>
<rect x="399.801" y="-301.763" width="35" height="425" transform="rotate(24.0005 399.801 -301.763)" fill="#B4B3B3"/>
<rect x="1390.99" y="139.555" width="35" height="425" transform="rotate(24.0005 1390.99 139.555)" fill="#920404"/>
<rect x="1422.97" y="153.791" width="35" height="425" transform="rotate(24.0005 1422.97 153.791)" fill="#B4B3B3"/>
<rect x="879.004" y="-87.3085" width="35" height="425" transform="rotate(24.0005 879.004 -87.3085)" fill="#920404"/>
<rect x="910.978" y="-73.0724" width="35" height="425" transform="rotate(24.0005 910.978 -73.0724)" fill="#B4B3B3"/>
<rect x="1071.66" y="-3.71935" width="35" height="425" transform="rotate(24.0005 1071.66 -3.71935)" fill="#920404"/>
<rect x="1103.63" y="10.5167" width="35" height="425" transform="rotate(24.0005 1103.63 10.5167)" fill="#B4B3B3"/>
<rect x="559.671" y="-230.582" width="35" height="425" transform="rotate(24.0005 559.671 -230.582)" fill="#920404"/>
<rect x="591.645" y="-216.346" width="35" height="425" transform="rotate(24.0005 591.645 -216.346)" fill="#B4B3B3"/>
<rect x="304.286" y="-345.384" width="35" height="425" transform="rotate(24.0005 304.286 -345.384)" fill="#920404"/>
<rect x="336.26" y="-331.148" width="35" height="425" transform="rotate(24.0005 336.26 -331.148)" fill="#B4B3B3"/>
<rect x="1327.45" y="110.169" width="35" height="425" transform="rotate(24.0005 1327.45 110.169)" fill="#920404"/>
<rect x="1359.43" y="124.405" width="35" height="425" transform="rotate(24.0005 1359.43 124.405)" fill="#B4B3B3"/>
<rect x="815.462" y="-116.694" width="35" height="425" transform="rotate(24.0005 815.462 -116.694)" fill="#920404"/>
<rect x="847.436" y="-102.458" width="35" height="425" transform="rotate(24.0005 847.436 -102.458)" fill="#B4B3B3"/>
<rect x="175.983" y="-401.415" width="35" height="425" transform="rotate(24.0005 175.983 -401.415)" fill="#920404"/>
<rect x="207.957" y="-387.179" width="35" height="425" transform="rotate(24.0005 207.957 -387.179)" fill="#B4B3B3"/>
<rect x="1199.15" y="54.1383" width="35" height="425" transform="rotate(24.0005 1199.15 54.1383)" fill="#920404"/>
<rect x="1231.12" y="68.3744" width="35" height="425" transform="rotate(24.0005 1231.12 68.3744)" fill="#B4B3B3"/>
<rect x="687.16" y="-172.725" width="35" height="425" transform="rotate(24.0005 687.16 -172.725)" fill="#920404"/>
<rect x="719.134" y="-158.489" width="35" height="425" transform="rotate(24.0005 719.134 -158.489)" fill="#B4B3B3"/>
<rect x="431.775" y="-287.527" width="35" height="425" transform="rotate(24.0005 431.775 -287.527)" fill="#920404"/>
<rect x="463.749" y="-273.29" width="35" height="425" transform="rotate(24.0005 463.749 -273.29)" fill="#B4B3B3"/>
<rect x="942.952" y="-58.8364" width="35" height="425" transform="rotate(24.0005 942.952 -58.8364)" fill="#920404"/>
<rect x="974.926" y="-44.6004" width="35" height="425" transform="rotate(24.0005 974.926 -44.6004)" fill="#B4B3B3"/>
<rect x="322.856" y="129.201" width="35" height="425" transform="rotate(24.0005 322.856 129.201)" fill="#920404"/>
<rect x="354.83" y="143.437" width="35" height="425" transform="rotate(24.0005 354.83 143.437)" fill="#B4B3B3"/>
<rect x="67.4714" y="14.3992" width="35" height="425" transform="rotate(24.0005 67.4714 14.3992)" fill="#920404"/>
<rect x="99.4454" y="28.6352" width="35" height="425" transform="rotate(24.0005 99.4454 28.6352)" fill="#B4B3B3"/>
<rect x="-28.8573" y="-27.3954" width="35" height="425" transform="rotate(24.0005 -28.8573 -27.3954)" fill="#B4B3B3"/>
<rect x="194.961" y="72.2569" width="35" height="425" transform="rotate(24.0005 194.961 72.2569)" fill="#920404"/>
<rect x="226.935" y="86.4929" width="35" height="425" transform="rotate(24.0005 226.935 86.4929)" fill="#B4B3B3"/>
<rect x="386.804" y="157.673" width="35" height="425" transform="rotate(24.0005 386.804 157.673)" fill="#920404"/>
<rect x="131.419" y="42.8712" width="35" height="425" transform="rotate(24.0005 131.419 42.8712)" fill="#920404"/>
<rect x="163.393" y="57.1073" width="35" height="425" transform="rotate(24.0005 163.393 57.1073)" fill="#B4B3B3"/>
<rect x="3.1167" y="-13.1594" width="35" height="425" transform="rotate(24.0005 3.1167 -13.1594)" fill="#920404"/>
<rect x="35.0907" y="1.07667" width="35" height="425" transform="rotate(24.0005 35.0907 1.07667)" fill="#B4B3B3"/>
<rect x="258.909" y="100.729" width="35" height="425" transform="rotate(24.0005 258.909 100.729)" fill="#920404"/>
<rect x="290.883" y="114.965" width="35" height="425" transform="rotate(24.0005 290.883 114.965)" fill="#B4B3B3"/>
</g>
<mask id="mask2" mask-type="alpha" maskUnits="userSpaceOnUse" x="351" y="1" width="1188" height="84">
<path fill-rule="evenodd" clip-rule="evenodd" d="M1394.3 1L1488.94 70.336L1538.99 20.887L1394.3 1ZM1137.28 42.576L1188.61 70.336L1269.21 64.91L1137.28 42.576ZM884 1L1041.47 84.151L1122.4 58.089L884 1ZM351.496 1L490.331 84.151L539.652 55.625L351.496 1Z" fill="#1A1823"/>
</mask>
<g mask="url(#mask2)">
<rect x="1436.37" y="-306.559" width="35" height="425" transform="rotate(24.0005 1436.37 -306.559)" fill="#B80606"/>
<rect x="1468.35" y="-292.323" width="35" height="425" transform="rotate(24.0005 1468.35 -292.323)" fill="#DEDEDE"/>
<rect x="1308.07" y="-362.589" width="35" height="425" transform="rotate(24.0005 1308.07 -362.589)" fill="#B80606"/>
<rect x="1340.04" y="-348.353" width="35" height="425" transform="rotate(24.0005 1340.04 -348.353)" fill="#DEDEDE"/>
<rect x="1563.86" y="-248.701" width="35" height="425" transform="rotate(24.0005 1563.86 -248.701)" fill="#B80606"/>
<rect x="1595.83" y="-234.465" width="35" height="425" transform="rotate(24.0005 1595.83 -234.465)" fill="#DEDEDE"/>
<rect x="1244.53" y="-391.975" width="35" height="425" transform="rotate(24.0005 1244.53 -391.975)" fill="#B80606"/>
<rect x="1276.5" y="-377.739" width="35" height="425" transform="rotate(24.0005 1276.5 -377.739)" fill="#DEDEDE"/>
<rect x="1500.32" y="-278.086" width="35" height="425" transform="rotate(24.0005 1500.32 -278.086)" fill="#B80606"/>
<rect x="1532.29" y="-263.85" width="35" height="425" transform="rotate(24.0005 1532.29 -263.85)" fill="#DEDEDE"/>
<rect x="1372.02" y="-334.117" width="35" height="425" transform="rotate(24.0005 1372.02 -334.117)" fill="#B80606"/>
<rect x="1403.99" y="-319.881" width="35" height="425" transform="rotate(24.0005 1403.99 -319.881)" fill="#DEDEDE"/>
<rect x="1007.71" y="-32.1914" width="35" height="425" transform="rotate(24.0005 1007.71 -32.1914)" fill="#B80606"/>
<rect x="1039.69" y="-17.9554" width="35" height="425" transform="rotate(24.0005 1039.69 -17.9554)" fill="#DEDEDE"/>
<rect x="495.723" y="-259.054" width="35" height="425" transform="rotate(24.0005 495.723 -259.054)" fill="#B80606"/>
<rect x="527.697" y="-244.818" width="35" height="425" transform="rotate(24.0005 527.697 -244.818)" fill="#DEDEDE"/>
<rect x="1263.5" y="81.6969" width="35" height="425" transform="rotate(24.0005 1263.5 81.6969)" fill="#B80606"/>
<rect x="751.514" y="-145.166" width="35" height="425" transform="rotate(24.0005 751.514 -145.166)" fill="#B80606"/>
<rect x="783.488" y="-130.93" width="35" height="425" transform="rotate(24.0005 783.488 -130.93)" fill="#DEDEDE"/>
<rect x="1135.2" y="25.6663" width="35" height="425" transform="rotate(24.0005 1135.2 25.6663)" fill="#B80606"/>
<rect x="1167.18" y="39.9023" width="35" height="425" transform="rotate(24.0005 1167.18 39.9023)" fill="#DEDEDE"/>
<rect x="623.212" y="-201.197" width="35" height="425" transform="rotate(24.0005 623.212 -201.197)" fill="#B80606"/>
<rect x="655.186" y="-186.961" width="35" height="425" transform="rotate(24.0005 655.186 -186.961)" fill="#DEDEDE"/>
<rect x="367.827" y="-315.999" width="35" height="425" transform="rotate(24.0005 367.827 -315.999)" fill="#B80606"/>
<rect x="399.801" y="-301.763" width="35" height="425" transform="rotate(24.0005 399.801 -301.763)" fill="#DEDEDE"/>
<rect x="879.004" y="-87.3085" width="35" height="425" transform="rotate(24.0005 879.004 -87.3085)" fill="#B80606"/>
<rect x="910.978" y="-73.0724" width="35" height="425" transform="rotate(24.0005 910.978 -73.0724)" fill="#DEDEDE"/>
<rect x="1071.66" y="-3.71935" width="35" height="425" transform="rotate(24.0005 1071.66 -3.71935)" fill="#B80606"/>
<rect x="1103.63" y="10.5167" width="35" height="425" transform="rotate(24.0005 1103.63 10.5167)" fill="#DEDEDE"/>
<rect x="559.671" y="-230.582" width="35" height="425" transform="rotate(24.0005 559.671 -230.582)" fill="#B80606"/>
<rect x="591.645" y="-216.346" width="35" height="425" transform="rotate(24.0005 591.645 -216.346)" fill="#DEDEDE"/>
<rect x="336.26" y="-331.148" width="35" height="425" transform="rotate(24.0005 336.26 -331.148)" fill="#DEDEDE"/>
<rect x="815.462" y="-116.694" width="35" height="425" transform="rotate(24.0005 815.462 -116.694)" fill="#B80606"/>
<rect x="847.436" y="-102.458" width="35" height="425" transform="rotate(24.0005 847.436 -102.458)" fill="#DEDEDE"/>
<rect x="1199.15" y="54.1383" width="35" height="425" transform="rotate(24.0005 1199.15 54.1383)" fill="#B80606"/>
<rect x="1231.12" y="68.3744" width="35" height="425" transform="rotate(24.0005 1231.12 68.3744)" fill="#DEDEDE"/>
<rect x="687.16" y="-172.725" width="35" height="425" transform="rotate(24.0005 687.16 -172.725)" fill="#B80606"/>
<rect x="719.134" y="-158.489" width="35" height="425" transform="rotate(24.0005 719.134 -158.489)" fill="#DEDEDE"/>
<rect x="431.775" y="-287.527" width="35" height="425" transform="rotate(24.0005 431.775 -287.527)" fill="#B80606"/>
<rect x="463.749" y="-273.29" width="35" height="425" transform="rotate(24.0005 463.749 -273.29)" fill="#DEDEDE"/>
<rect x="942.952" y="-58.8364" width="35" height="425" transform="rotate(24.0005 942.952 -58.8364)" fill="#B80606"/>
<rect x="974.926" y="-44.6004" width="35" height="425" transform="rotate(24.0005 974.926 -44.6004)" fill="#DEDEDE"/>
</g>
<mask id="mask3" mask-type="alpha" maskUnits="userSpaceOnUse" x="0" y="1" width="1440" height="265">
<path fill-rule="evenodd" clip-rule="evenodd" d="M0 84.151L351.496 1L490.331 84.151L562 42.576L884 1L1041.47 84.151L1137.28 42.576L1188.61 70.336L1394.3 1L1440 30.317V266H0V84.151Z" fill="#2F2439"/>
</mask>
<g mask="url(#mask3)">
<rect x="1436.37" y="-306.559" width="35" height="425" transform="rotate(24.0005 1436.37 -306.559)" fill="#FF0000"/>
<rect x="1468.35" y="-292.323" width="35" height="425" transform="rotate(24.0005 1468.35 -292.323)" fill="white"/>
<rect x="1308.07" y="-362.589" width="35" height="425" transform="rotate(24.0005 1308.07 -362.589)" fill="#FF0000"/>
<rect x="1340.04" y="-348.353" width="35" height="425" transform="rotate(24.0005 1340.04 -348.353)" fill="white"/>
<rect x="1563.86" y="-248.701" width="35" height="425" transform="rotate(24.0005 1563.86 -248.701)" fill="#FF0000"/>
<rect x="1595.83" y="-234.465" width="35" height="425" transform="rotate(24.0005 1595.83 -234.465)" fill="white"/>
<rect x="1244.53" y="-391.975" width="35" height="425" transform="rotate(24.0005 1244.53 -391.975)" fill="#FF0000"/>
<rect x="1276.5" y="-377.739" width="35" height="425" transform="rotate(24.0005 1276.5 -377.739)" fill="white"/>
<rect x="1500.32" y="-278.086" width="35" height="425" transform="rotate(24.0005 1500.32 -278.086)" fill="#FF0000"/>
<rect x="1532.29" y="-263.85" width="35" height="425" transform="rotate(24.0005 1532.29 -263.85)" fill="white"/>
<rect x="1372.02" y="-334.117" width="35" height="425" transform="rotate(24.0005 1372.02 -334.117)" fill="#FF0000"/>
<rect x="1403.99" y="-319.881" width="35" height="425" transform="rotate(24.0005 1403.99 -319.881)" fill="white"/>
<rect x="1007.71" y="-32.1914" width="35" height="425" transform="rotate(24.0005 1007.71 -32.1914)" fill="#FF0000"/>
<rect x="1039.69" y="-17.9554" width="35" height="425" transform="rotate(24.0005 1039.69 -17.9554)" fill="white"/>
<rect x="495.723" y="-259.054" width="35" height="425" transform="rotate(24.0005 495.723 -259.054)" fill="#FF0000"/>
<rect x="527.697" y="-244.818" width="35" height="425" transform="rotate(24.0005 527.697 -244.818)" fill="white"/>
<rect x="1518.89" y="196.499" width="35" height="425" transform="rotate(24.0005 1518.89 196.499)" fill="#FF0000"/>
<rect x="240.338" y="-373.856" width="35" height="425" transform="rotate(24.0005 240.338 -373.856)" fill="#FF0000"/>
<rect x="272.312" y="-359.62" width="35" height="425" transform="rotate(24.0005 272.312 -359.62)" fill="white"/>
<rect x="1263.5" y="81.6969" width="35" height="425" transform="rotate(24.0005 1263.5 81.6969)" fill="#FF0000"/>
<rect x="1295.48" y="95.9329" width="35" height="425" transform="rotate(24.0005 1295.48 95.9329)" fill="white"/>
<rect x="751.514" y="-145.166" width="35" height="425" transform="rotate(24.0005 751.514 -145.166)" fill="#FF0000"/>
<rect x="783.488" y="-130.93" width="35" height="425" transform="rotate(24.0005 783.488 -130.93)" fill="white"/>
<rect x="1135.2" y="25.6663" width="35" height="425" transform="rotate(24.0005 1135.2 25.6663)" fill="#FF0000"/>
<rect x="1167.18" y="39.9023" width="35" height="425" transform="rotate(24.0005 1167.18 39.9023)" fill="white"/>
<rect x="623.212" y="-201.197" width="35" height="425" transform="rotate(24.0005 623.212 -201.197)" fill="#FF0000"/>
<rect x="655.186" y="-186.961" width="35" height="425" transform="rotate(24.0005 655.186 -186.961)" fill="white"/>
<rect x="367.827" y="-315.999" width="35" height="425" transform="rotate(24.0005 367.827 -315.999)" fill="#FF0000"/>
<rect x="399.801" y="-301.763" width="35" height="425" transform="rotate(24.0005 399.801 -301.763)" fill="white"/>
<rect x="1390.99" y="139.555" width="35" height="425" transform="rotate(24.0005 1390.99 139.555)" fill="#FF0000"/>
<rect x="1422.97" y="153.791" width="35" height="425" transform="rotate(24.0005 1422.97 153.791)" fill="white"/>
<rect x="879.004" y="-87.3085" width="35" height="425" transform="rotate(24.0005 879.004 -87.3085)" fill="#FF0000"/>
<rect x="910.978" y="-73.0724" width="35" height="425" transform="rotate(24.0005 910.978 -73.0724)" fill="white"/>
<rect x="1071.66" y="-3.71935" width="35" height="425" transform="rotate(24.0005 1071.66 -3.71935)" fill="#FF0000"/>
<rect x="1103.63" y="10.5167" width="35" height="425" transform="rotate(24.0005 1103.63 10.5167)" fill="white"/>
<rect x="559.671" y="-230.582" width="35" height="425" transform="rotate(24.0005 559.671 -230.582)" fill="#FF0000"/>
<rect x="591.645" y="-216.346" width="35" height="425" transform="rotate(24.0005 591.645 -216.346)" fill="white"/>
<rect x="304.286" y="-345.384" width="35" height="425" transform="rotate(24.0005 304.286 -345.384)" fill="#FF0000"/>
<rect x="336.26" y="-331.148" width="35" height="425" transform="rotate(24.0005 336.26 -331.148)" fill="white"/>
<rect x="1327.45" y="110.169" width="35" height="425" transform="rotate(24.0005 1327.45 110.169)" fill="#FF0000"/>
<rect x="1359.43" y="124.405" width="35" height="425" transform="rotate(24.0005 1359.43 124.405)" fill="white"/>
<rect x="815.462" y="-116.694" width="35" height="425" transform="rotate(24.0005 815.462 -116.694)" fill="#FF0000"/>
<rect x="847.436" y="-102.458" width="35" height="425" transform="rotate(24.0005 847.436 -102.458)" fill="white"/>
<rect x="175.983" y="-401.415" width="35" height="425" transform="rotate(24.0005 175.983 -401.415)" fill="#FF0000"/>
<rect x="207.957" y="-387.179" width="35" height="425" transform="rotate(24.0005 207.957 -387.179)" fill="white"/>
<rect x="1199.15" y="54.1383" width="35" height="425" transform="rotate(24.0005 1199.15 54.1383)" fill="#FF0000"/>
<rect x="1231.12" y="68.3744" width="35" height="425" transform="rotate(24.0005 1231.12 68.3744)" fill="white"/>
<rect x="687.16" y="-172.725" width="35" height="425" transform="rotate(24.0005 687.16 -172.725)" fill="#FF0000"/>
<rect x="719.134" y="-158.489" width="35" height="425" transform="rotate(24.0005 719.134 -158.489)" fill="white"/>
<rect x="431.775" y="-287.527" width="35" height="425" transform="rotate(24.0005 431.775 -287.527)" fill="#FF0000"/>
<rect x="463.749" y="-273.29" width="35" height="425" transform="rotate(24.0005 463.749 -273.29)" fill="white"/>
<rect x="1454.94" y="168.027" width="35" height="425" transform="rotate(24.0005 1454.94 168.027)" fill="#FF0000"/>
<rect x="1486.92" y="182.263" width="35" height="425" transform="rotate(24.0005 1486.92 182.263)" fill="white"/>
<rect x="942.952" y="-58.8364" width="35" height="425" transform="rotate(24.0005 942.952 -58.8364)" fill="#FF0000"/>
<rect x="974.926" y="-44.6004" width="35" height="425" transform="rotate(24.0005 974.926 -44.6004)" fill="white"/>
<rect x="322.856" y="129.201" width="35" height="425" transform="rotate(24.0005 322.856 129.201)" fill="#FF0000"/>
<rect x="354.83" y="143.437" width="35" height="425" transform="rotate(24.0005 354.83 143.437)" fill="white"/>
<rect x="67.4714" y="14.3992" width="35" height="425" transform="rotate(24.0005 67.4714 14.3992)" fill="#FF0000"/>
<rect x="99.4454" y="28.6352" width="35" height="425" transform="rotate(24.0005 99.4454 28.6352)" fill="white"/>
<rect x="-28.8573" y="-27.3954" width="35" height="425" transform="rotate(24.0005 -28.8573 -27.3954)" fill="white"/>
<rect x="450.346" y="187.059" width="35" height="425" transform="rotate(24.0005 450.346 187.059)" fill="#FF0000"/>
<rect x="194.961" y="72.2569" width="35" height="425" transform="rotate(24.0005 194.961 72.2569)" fill="#FF0000"/>
<rect x="226.935" y="86.4929" width="35" height="425" transform="rotate(24.0005 226.935 86.4929)" fill="white"/>
<rect x="386.804" y="157.673" width="35" height="425" transform="rotate(24.0005 386.804 157.673)" fill="#FF0000"/>
<rect x="418.778" y="171.909" width="35" height="425" transform="rotate(24.0005 418.778 171.909)" fill="white"/>
<rect x="131.419" y="42.8712" width="35" height="425" transform="rotate(24.0005 131.419 42.8712)" fill="#FF0000"/>
<rect x="163.393" y="57.1073" width="35" height="425" transform="rotate(24.0005 163.393 57.1073)" fill="white"/>
<rect x="3.1167" y="-13.1594" width="35" height="425" transform="rotate(24.0005 3.1167 -13.1594)" fill="#FF0000"/>
<rect x="35.0907" y="1.07667" width="35" height="425" transform="rotate(24.0005 35.0907 1.07667)" fill="white"/>
<rect x="258.909" y="100.729" width="35" height="425" transform="rotate(24.0005 258.909 100.729)" fill="#FF0000"/>
<rect x="290.883" y="114.965" width="35" height="425" transform="rotate(24.0005 290.883 114.965)" fill="white"/>
</g>
</g>
</svg>
